<svg width="28" height="28" viewBox="0 0 28 28" fill="none" xmlns="http://www.w3.org/2000/svg">
<g clip-path="url(#clip0)">
<path d="M1.20766 8.96445C0.633844 9.69636 0.358646 10.481 0.393778 11.289C0.428909 12.179 0.82707 12.8758 1.15497 13.3032C0.774372 14.2518 0.627991 15.7449 1.89859 16.9042C2.82958 17.7532 4.41051 18.1338 6.60038 18.0284C8.14033 17.9582 9.42849 17.6713 9.48119 17.6596H9.48704C9.77981 17.6069 10.0901 17.5425 10.4063 17.4722C10.4297 17.8469 10.3653 18.7779 9.67441 20.8741C8.85467 23.3685 8.90151 25.2773 9.82665 26.5537C10.7986 27.8946 12.3503 28 12.807 28C13.2461 28 13.6502 27.8185 13.9371 27.4847C14.587 26.7294 14.5109 25.3358 14.4289 24.6918C15.2018 22.619 17.3683 17.5366 19.201 16.1255C19.2361 16.102 19.2654 16.0728 19.2947 16.0435C19.8333 15.4755 20.1964 14.8607 20.4423 14.322C20.7878 14.5094 21.1801 14.6148 21.6016 14.6148H25.1734C26.5201 14.6148 27.6092 13.5199 27.6092 12.179V2.66416C27.6092 1.31744 26.5142 0.228357 25.1734 0.228357H21.6016C21.0805 0.228357 20.5945 0.392303 20.1964 0.673359L18.8204 0.509411C18.6096 0.480135 14.8622 0.00585556 11.0153 0.0819759C10.3185 0.0292778 9.6627 0 9.05375 0C8.00565 0 7.09223 0.081974 6.33104 0.245922C4.53932 0.626516 3.31557 1.3877 2.69491 2.50607C2.22063 3.36094 2.22063 4.20995 2.29675 4.74864C1.13154 5.80259 0.926611 6.9678 0.967598 7.78754C0.991018 8.26181 1.09641 8.66583 1.20766 8.96445ZM25.1734 1.80929C25.6476 1.80929 26.0282 2.19573 26.0282 2.66416V12.1849C26.0282 12.6591 25.6418 13.0397 25.1734 13.0397H21.6016C21.1274 13.0397 20.7468 12.6533 20.7468 12.1849L20.7468 2.67001C20.7468 2.19573 21.1332 1.81514 21.6016 1.81514H25.1734V1.80929ZM2.70662 9.64952C2.95254 9.39189 2.99938 8.99958 2.81201 8.69511C2.81201 8.68925 2.57195 8.27938 2.54267 7.71727C2.50168 6.95023 2.87057 6.27102 3.64346 5.69134C3.91866 5.48055 4.02991 5.11753 3.91281 4.78963C3.91281 4.78377 3.66103 4.01087 4.0709 3.27896C4.46321 2.57633 5.33564 2.07277 6.65894 1.79172C7.71874 1.56336 9.15915 1.52238 10.9274 1.6629C10.9509 1.6629 10.9801 1.6629 11.0094 1.6629C14.7744 1.58093 18.5803 2.07277 18.6213 2.07863H18.6271L19.2185 2.14889C19.1834 2.31284 19.1658 2.4885 19.1658 2.66416L19.1658 12.1849C19.1658 12.4366 19.2068 12.6826 19.2771 12.9109C19.1717 13.3032 18.8789 14.1757 18.188 14.9193C15.559 17.0038 12.9885 24.036 12.8773 24.3404C12.8304 24.4634 12.8187 24.5981 12.8421 24.7327C12.9417 25.3885 12.9065 26.1907 12.766 26.4308C12.4557 26.4249 11.6184 26.3371 11.1148 25.6403C10.5176 24.8147 10.541 23.3392 11.1851 21.3835C12.1688 18.4032 12.2507 16.834 11.472 16.143C11.0855 15.7976 10.5703 15.78 10.1955 15.9147C9.83836 15.9967 9.49875 16.0669 9.17671 16.1196C9.15329 16.1255 9.12401 16.1313 9.10059 16.1372C7.30302 16.5295 4.08261 16.7696 2.96425 15.7507C2.01569 14.8841 2.68905 13.7365 2.76517 13.6136C2.98182 13.2857 2.91741 12.8582 2.62464 12.5947C2.61879 12.5889 2.00398 12.0092 1.97471 11.2304C1.95128 10.7093 2.19721 10.1765 2.70662 9.64952Z" fill="black"/>
</g>
<defs>
<clipPath id="clip0">
<rect width="28" height="28" fill="white" transform="translate(28 28) rotate(-180)"/>
</clipPath>
</defs>
</svg>
